<?xml version="1.0" encoding="utf-8"?>
<!-- Generator: Adobe Illustrator 26.0.2, SVG Export Plug-In . SVG Version: 6.00 Build 0)  -->
<svg version="1.1" xmlns="http://www.w3.org/2000/svg" xmlns:xlink="http://www.w3.org/1999/xlink" x="0px" y="0px"
	 viewBox="0 0 160 32" style="enable-background:new 0 0 160 32;" xml:space="preserve">
<style type="text/css">
	.st0{fill:#4C5766;}
	.st1{fill:#569DD5;}
	.st2{fill:none;stroke:#569DD5;stroke-width:0.9865;stroke-miterlimit:10;}
	.st3{fill:#2095F3;}
	.st4{fill:#231F20;}
	.st5{fill:#FFFFFF;}
	.st6{fill:#222A35;}
	.st7{fill:#4B5766;}
	.st8{fill:#FF6680;}
	.st9{fill:#FFA983;}
	.st10{fill:#00A99D;}
	.st11{fill:#F2F2F2;stroke:#CCCCCC;stroke-width:0.5735;stroke-miterlimit:10;}
	.st12{fill:#404041;}
	.st13{fill:#565E76;}
	.st14{fill:none;}
	.st15{fill:#64C0FF;}
</style>
<g id="Layer_1">
</g>
<g id="Layer_2">
	<g>
		<g>
			<path class="st5" d="M44.3,11c-3.6,0-6.4,2.9-6.4,6.4c0,3.6,2.9,6.4,6.4,6.4c3.6,0,6.4-2.9,6.4-6.4C50.8,13.8,47.9,11,44.3,11z
				 M44.3,21.3c-2.1,0-3.8-1.7-3.8-3.8c0-2.1,1.7-3.8,3.8-3.8c2.1,0,3.8,1.7,3.8,3.8C48.2,19.5,46.4,21.3,44.3,21.3z"/>
		</g>
		<g>
			<path class="st5" d="M59.3,11c-1.8-0.3-3.5,0.2-4.8,1.2V8.9c0-1-0.8-1.7-1.7-1.7h0c-0.5,0-0.8,0.4-0.8,0.8V22
				c0,1,0.8,1.7,1.7,1.7h0c0.5,0,0.8-0.4,0.8-0.8v-0.3c1.1,0.8,2.4,1.3,3.8,1.3c3.8,0,6.8-3.3,6.4-7.2C64.4,13.8,62.1,11.5,59.3,11z
				 M57.5,21.2c-1.8-0.4-3-2.1-3-3.9v0c0-1.4,0.7-2.6,1.9-3.2c2.9-1.4,5.7,0.7,5.7,3.4C62.2,19.8,60,21.7,57.5,21.2z"/>
		</g>
		<g>
			<path class="st5" d="M72.2,11c-3.6,0-6.4,2.9-6.4,6.4c0,3.6,2.9,6.4,6.4,6.4s6.4-2.9,6.4-6.4C78.7,13.8,75.8,11,72.2,11z
				 M72.2,21.3c-2.1,0-3.8-1.7-3.8-3.8c0-2.1,1.7-3.8,3.8-3.8c2.1,0,3.8,1.7,3.8,3.8C76.1,19.5,74.3,21.3,72.2,21.3z"/>
		</g>
		<g>
			<path class="st5" d="M92.3,11.8c-3.3,0-6,2.7-6,6s2.7,6,6,6c3.3,0,6-2.7,6-6S95.6,11.8,92.3,11.8z M92.3,22
				c-2.3,0-4.2-1.9-4.2-4.2s1.9-4.2,4.2-4.2c2.3,0,4.2,1.9,4.2,4.2S94.6,22,92.3,22z"/>
			<path class="st5" d="M105.2,11.8c-3.3,0-6,2.7-6,6s2.7,6,6,6s6-2.7,6-6S108.5,11.8,105.2,11.8z M105.2,22c-2.3,0-4.2-1.9-4.2-4.2
				s1.9-4.2,4.2-4.2c2.3,0,4.2,1.9,4.2,4.2S107.5,22,105.2,22z"/>
			<path class="st5" d="M122.3,11.8c-1.6,0-3.1,0.6-4.2,1.7V9.6c0-0.7-0.6-1.2-1.2-1.2c-0.3,0-0.6,0.3-0.6,0.6v13.6
				c0,0.7,0.6,1.2,1.2,1.2c0.3,0,0.6-0.3,0.6-0.6v-1c1.1,1,2.5,1.7,4.2,1.7c3.3,0,6-2.7,6-6S125.7,11.8,122.3,11.8z M122.3,22
				c-2.3,0-4.2-1.9-4.2-4.2s1.9-4.2,4.2-4.2c2.3,0,4.2,1.9,4.2,4.2S124.6,22,122.3,22z"/>
			<path class="st5" d="M135.3,11.8c-3.3,0-6,2.7-6,6s2.7,6,6,6c3.3,0,6-2.7,6-6S138.6,11.8,135.3,11.8z M135.3,22
				c-2.3,0-4.2-1.9-4.2-4.2s1.9-4.2,4.2-4.2c2.3,0,4.2,1.9,4.2,4.2S137.6,22,135.3,22z"/>
			<path class="st5" d="M113.1,8.3c-0.3,0-0.6,0.3-0.6,0.6v13.6c0,0.7,0.6,1.2,1.2,1.2c0.3,0,0.6-0.3,0.6-0.6V9.6
				C114.4,8.9,113.8,8.3,113.1,8.3z"/>
			<path class="st5" d="M147,17.8l3.4-5.3c0.2-0.3,0-0.8-0.4-0.8h0c-0.8,0-1.6,0.4-2,1.1l-2,3.2l-2-3.2c-0.4-0.7-1.2-1.1-2-1.1
				c-0.4,0-0.6,0.4-0.4,0.8l3.4,5.3l-3.4,5.3c-0.2,0.3,0,0.8,0.4,0.8h0c0.8,0,1.6-0.4,2-1.1l2-3.2l2,3.2c0.4,0.7,1.2,1.1,2,1.1h0
				c0.4,0,0.6-0.4,0.4-0.8L147,17.8z"/>
			<path class="st5" d="M87.6,11c0.7,0,1.2-0.6,1.2-1.2c0-0.3-0.3-0.6-0.6-0.6h-9.1c-0.7,0-1.2,0.6-1.2,1.2c0,0.3,0.3,0.6,0.6,0.6
				h3.9v11.6c0,0.7,0.6,1.2,1.2,1.2c0.3,0,0.6-0.3,0.6-0.6V11h1.1H87.6z"/>
		</g>
		<g>
			<path class="st5" d="M38.9,22.8l-7.1-7.1l5.9-5.9c0.3-0.3,0.1-0.8-0.3-0.8h-1.1c-0.9,0-1.8,0.4-2.4,1l-5.3,5.3v-4.6
				c0-1-0.8-1.7-1.7-1.7h0c-0.4,0-0.8,0.4-0.8,0.8V22c0,1,0.8,1.7,1.7,1.7h0c0.4,0,0.8-0.4,0.8-0.8v-2.6c0-0.8,0.3-1.5,0.8-2
				l0.7-0.7l5,5c0.6,0.6,1.5,1,2.4,1h1.1C39,23.6,39.2,23.1,38.9,22.8z"/>
		</g>
		<g>
			<path class="st5" d="M17.2,19.1v1.7c0,1-0.8,1.7-1.7,1.7h-3.7c-1,0-1.7-0.8-1.7-1.7v-9.6c0-1,0.8-1.7,1.7-1.7h3.7
				c1,0,1.7,0.8,1.7,1.7v0.2c0.3-0.1,0.7-0.2,1-0.2c0.4,0,0.8,0.1,1.2,0.2v-0.3c0-2.2-1.8-4-4-4h-3.7c-2.2,0-4,1.8-4,4v9.6
				c0,2.2,1.8,4,4,4h3.7c2.2,0,4-1.8,4-4v-4.3L17.2,19.1z"/>
			<path class="st5" d="M15.4,18.5l4-4.6c0.1-0.1,0.1-0.4,0-0.5l0,0c-0.7-0.6-1.8-0.5-2.4,0.2l-2.5,2.9c-0.1,0.1-0.2,0.1-0.2,0
				l-0.9-1.1c-0.2-0.2-0.5-0.2-0.7,0l0,0c-0.6,0.6-0.6,1.6-0.1,2.3l0.8,0.9C13.8,19.2,14.8,19.2,15.4,18.5z"/>
		</g>
	</g>
	<rect class="st14" width="160" height="32"/>
</g>
</svg>
